<svg id="bc5e2e16-69f5-4f37-9138-d645049d4e38" data-name="Слой 1" xmlns="http://www.w3.org/2000/svg" viewBox="0 0 596.44 64.37" width='330px'><path d="M42.43,114.66h-4.6v12.68h-17V76.94H45.1a29.73,29.73,0,0,1,12.17,2.3,18.63,18.63,0,0,1,8.35,26.14,17.31,17.31,0,0,1-7.06,6.4l10.59,15.56H51ZM49.2,91.59A7.56,7.56,0,0,0,44,90H37.83v11.81H44a7.56,7.56,0,0,0,5.18-1.55,6.35,6.35,0,0,0,0-8.71Z" transform="translate(-20.83 -76.94)" style="fill:#fff"/><path d="M115.66,111.42H88.3a6.56,6.56,0,0,0,2.88,3.42,9.69,9.69,0,0,0,5,1.19,12.46,12.46,0,0,0,4.35-.65,15.18,15.18,0,0,0,3.86-2.23l8.49,8.57q-5.76,6.33-17.21,6.34a28.3,28.3,0,0,1-12.52-2.63,19.92,19.92,0,0,1-8.36-7.31,20.36,20.36,0,0,1,0-21.06,19.92,19.92,0,0,1,8-7.24,26.31,26.31,0,0,1,22.32-.21,18.73,18.73,0,0,1,7.85,7,20.22,20.22,0,0,1,2.91,11Q115.87,108,115.66,111.42ZM90.17,99.69A6.54,6.54,0,0,0,88,103.58h12.67a6.56,6.56,0,0,0-2.16-3.86,6.24,6.24,0,0,0-4.17-1.4A6.35,6.35,0,0,0,90.17,99.69Z" transform="translate(-20.83 -76.94)" style="fill:#fff"/><path d="M156.81,89.72a17.93,17.93,0,0,1,6.91,7.16,22.21,22.21,0,0,1,2.55,10.8,22,22,0,0,1-2.55,10.76,18,18,0,0,1-6.91,7.13,18.92,18.92,0,0,1-9.54,2.49q-6.56,0-10-3.39V141.3H121V88h15.48v3.24q3.53-4,10.8-4A18.92,18.92,0,0,1,156.81,89.72ZM148,113.37a8.31,8.31,0,0,0,1.8-5.69A8.42,8.42,0,0,0,148,102a6.19,6.19,0,0,0-9.22,0,8.36,8.36,0,0,0-1.8,5.72,8.26,8.26,0,0,0,1.8,5.69,6.29,6.29,0,0,0,9.22,0Z" transform="translate(-20.83 -76.94)" style="fill:#fff"/><path d="M180.42,125.43a20.26,20.26,0,0,1-8.17-7.27,20.34,20.34,0,0,1,0-21.1,20,20,0,0,1,8.17-7.24,28.22,28.22,0,0,1,23.62,0,19.67,19.67,0,0,1,8.13,7.24,20.52,20.52,0,0,1,0,21.1,20,20,0,0,1-8.13,7.27,27.83,27.83,0,0,1-23.62,0Zm16.38-12.1a8.38,8.38,0,0,0,1.8-5.72,8.25,8.25,0,0,0-1.8-5.69,6.26,6.26,0,0,0-9.21,0,8.25,8.25,0,0,0-1.8,5.69,8.38,8.38,0,0,0,1.8,5.72,6.2,6.2,0,0,0,9.21,0Z" transform="translate(-20.83 -76.94)" style="fill:#fff"/><path d="M248.43,87.23v14.4a25.07,25.07,0,0,0-3.6-.29q-8.36,0-8.36,8.5v17.5H220.2V88h15.48V92.2Q240,87.24,248.43,87.23Z" transform="translate(-20.83 -76.94)" style="fill:#fff"/><path d="M283.13,126q-3.67,2.09-10,2.09-8.28,0-12.74-4t-4.47-12V102h-5.4V90.11h5.4v-11h16.27v11h8.07V102h-8.07v9.94a4,4,0,0,0,.94,2.81,3.18,3.18,0,0,0,2.45,1,6.37,6.37,0,0,0,3.67-1.08Z" transform="translate(-20.83 -76.94)" style="fill:#fff"/><path d="M287.74,76.94h24.84A34.25,34.25,0,0,1,327.44,80a23.23,23.23,0,0,1,10,8.74,24.7,24.7,0,0,1,3.57,13.4,24.67,24.67,0,0,1-3.57,13.39,23.25,23.25,0,0,1-10,8.75,34.25,34.25,0,0,1-14.86,3.06H287.74Zm24.12,37.15A12.15,12.15,0,0,0,320.6,111q3.28-3.13,3.28-8.82t-3.28-8.82a12.11,12.11,0,0,0-8.74-3.14h-7.13v23.91Z" transform="translate(-20.83 -76.94)" style="fill:#fff"/><path d="M355.74,125.43a20.26,20.26,0,0,1-8.17-7.27,20.34,20.34,0,0,1,0-21.1,20,20,0,0,1,8.17-7.24,28.22,28.22,0,0,1,23.62,0,19.74,19.74,0,0,1,8.13,7.24,20.52,20.52,0,0,1,0,21.1,20,20,0,0,1-8.13,7.27,27.83,27.83,0,0,1-23.62,0Zm16.38-12.1a8.38,8.38,0,0,0,1.8-5.72,8.25,8.25,0,0,0-1.8-5.69,6.27,6.27,0,0,0-9.22,0,8.25,8.25,0,0,0-1.8,5.69,8.38,8.38,0,0,0,1.8,5.72,6.21,6.21,0,0,0,9.22,0Z" transform="translate(-20.83 -76.94)" style="fill:#fff"/><path d="M461.62,88l-13.69,39.39H432.09l-6-18.22-6.19,18.22H404.09L390.41,88h15.4l6.77,20.81L419.64,88h13.82l6.84,21,7.06-21Z" transform="translate(-20.83 -76.94)" style="fill:#fff"/><path d="M503.84,91.62q4.43,4.39,4.43,13.25v22.47H492V107.68q0-6.77-4.83-6.77a5.62,5.62,0,0,0-4.42,1.91c-1.13,1.27-1.7,3.28-1.7,6v18.51H464.78V88h15.48v3.89a15,15,0,0,1,5.33-3.46,18.44,18.44,0,0,1,6.55-1.15Q499.42,87.23,503.84,91.62Z" transform="translate(-20.83 -76.94)" style="fill:#fff"/><path d="M562.7,118.7H556v8.64H539.52V118.7H513.38V107.9l21.39-31h17.42l-19,28.58H540v-7.7h16v7.7h6.69Z" transform="translate(-20.83 -76.94)" style="fill:#fff"/><path d="M587.18,76.94v50.4h-17V89.75h-8.64V76.94Z" transform="translate(-20.83 -76.94)" style="fill:#fff"/><path d="M617.28,76.94v50.4h-17V89.75h-8.64V76.94Z" transform="translate(-20.83 -76.94)" style="fill:#fff"/></svg>